<svg width="42" height="42" viewBox="0 0 42 42" fill="none" xmlns="http://www.w3.org/2000/svg">
<path fill-rule="evenodd" clip-rule="evenodd" d="M20.7253 17.057C20.2907 17.2557 20.2584 17.3514 20.2349 18.5069L20.2136 19.5567L19.7795 19.2639C19.5408 19.1029 19.0829 18.8828 18.7622 18.7748C18.2512 18.6028 18.0793 18.5785 17.3748 18.5792C16.7105 18.5798 16.4891 18.608 16.1016 18.7413C14.6704 19.2337 13.5379 20.4917 13.1502 22.0193C13.0017 22.6045 12.9552 23.8165 13.0474 24.7031C13.4156 28.2448 15.1742 31.5091 17.2908 32.5791C18.3938 33.1368 19.5488 33.1404 20.6115 32.5894L20.9993 32.3884L21.4529 32.6146C22.6308 33.202 23.992 33.1041 25.1411 32.3492C26.6139 31.3817 27.9272 29.2883 28.5694 26.8849C28.8784 25.7287 29.0013 24.7982 29 23.6276C28.9985 22.3938 28.8955 21.8674 28.4902 21.0244C27.3316 18.6141 24.3561 17.7992 22.1916 19.2993C22.0265 19.4138 21.8777 19.5075 21.8611 19.5075C21.8445 19.5075 21.831 19.1039 21.831 18.6107C21.831 17.6341 21.7618 17.3411 21.4874 17.1564C21.2436 16.9924 20.9501 16.9541 20.7253 17.057ZM18.6341 20.4915C19.1902 20.7738 19.6712 21.2541 19.9464 21.8021L20.1056 22.119L19.7357 22.9638C19.0256 24.5858 18.704 25.7518 18.7677 26.4737C18.8134 26.9905 19.1312 27.6733 19.4672 27.9762C19.603 28.0986 19.8812 28.2793 20.0856 28.3778C20.3958 28.5271 20.5516 28.5566 21.0269 28.5555C21.7047 28.5538 22.0587 28.415 22.5356 27.9635C23.5441 27.0088 23.4841 25.6668 22.3127 22.984L21.9227 22.0907L22.1281 21.7172C22.4202 21.1863 22.894 20.7244 23.4191 20.459C23.8493 20.2415 23.9091 20.23 24.6119 20.23C25.3105 20.23 25.3765 20.2425 25.792 20.4526C26.0675 20.5918 26.3628 20.8169 26.5812 21.0541C27.296 21.8303 27.5264 22.7478 27.397 24.3033C27.1408 27.3824 25.7169 30.2428 24.009 31.1096C23.5775 31.3286 23.4475 31.3626 23.0523 31.3601C22.5205 31.3567 22.251 31.2556 21.6839 30.8471C21.1528 30.4645 20.8491 30.4474 20.4435 30.7772C19.2211 31.7715 17.9245 31.49 16.6735 29.9586C15.7218 28.7937 14.9619 26.8892 14.6967 25.0039C14.5786 24.1641 14.5634 23.1346 14.6612 22.5963C14.8102 21.7763 15.4264 20.8772 16.0736 20.5356C16.6018 20.2568 16.8763 20.1962 17.5178 20.2164C18.0694 20.2338 18.1799 20.261 18.6341 20.4915ZM21.3227 24.8117C21.6411 25.7291 21.7259 26.1937 21.6298 26.4929C21.4738 26.9783 20.9111 27.1066 20.5526 26.7385C20.2705 26.4487 20.2876 26.0771 20.6288 25.0816C20.778 24.6463 20.9175 24.234 20.9389 24.1652C20.9989 23.9723 21.0772 24.1042 21.3227 24.8117Z" fill="#243838"/>
<path fill-rule="evenodd" clip-rule="evenodd" d="M10.5 1.3125C10.5 0.964403 10.3617 0.630564 10.1156 0.384422C9.86944 0.138281 9.5356 0 9.1875 0C8.8394 0 8.50556 0.138281 8.25942 0.384422C8.01328 0.630564 7.875 0.964403 7.875 1.3125V2.625H5.25C3.85761 2.625 2.52226 3.17812 1.53769 4.16269C0.553123 5.14726 0 6.48261 0 7.875V36.75C0 38.1424 0.553123 39.4777 1.53769 40.4623C2.52226 41.4469 3.85761 42 5.25 42H36.75C38.1424 42 39.4777 41.4469 40.4623 40.4623C41.4469 39.4777 42 38.1424 42 36.75V7.875C42 6.48261 41.4469 5.14726 40.4623 4.16269C39.4777 3.17812 38.1424 2.625 36.75 2.625H34.125V1.3125C34.125 0.964403 33.9867 0.630564 33.7406 0.384422C33.4944 0.138281 33.1606 0 32.8125 0C32.4644 0 32.1306 0.138281 31.8844 0.384422C31.6383 0.630564 31.5 0.964403 31.5 1.3125V2.625H10.5V1.3125ZM2.625 36.75V10.5H39.375V36.75C39.375 37.4462 39.0984 38.1139 38.6062 38.6062C38.1139 39.0984 37.4462 39.375 36.75 39.375H5.25C4.55381 39.375 3.88613 39.0984 3.39384 38.6062C2.90156 38.1139 2.625 37.4462 2.625 36.75Z" fill="#243838"/>
</svg>
