<svg width="55" height="46" viewBox="0 0 55 46" fill="none" xmlns="http://www.w3.org/2000/svg">
<path d="M0 2.29167C0 1.02603 1.02601 0 2.29167 0H8.02084C9.00151 0 9.87349 0.623998 10.1899 1.55222L20.0691 30.5312C20.3856 31.4593 21.2575 32.0834 22.2382 32.0834H41.9941C42.9587 32.0834 43.8201 31.4793 44.1488 30.5725L49.4404 15.9677H25.2083C23.9427 15.9677 22.9167 14.9417 22.9167 13.6761C22.9167 12.4104 23.9427 11.3844 25.2083 11.3844H52.7084C53.4555 11.3844 54.1558 11.7486 54.5846 12.3603C55.0136 12.972 55.1174 13.7544 54.863 14.4568L48.458 32.1338C47.4721 34.8544 44.888 36.6667 41.9941 36.6667H41.25H22.9167H22.2382C19.2962 36.6667 16.6803 34.7946 15.7309 32.01L6.38092 4.58334H2.29167C1.02601 4.58334 0 3.55731 0 2.29167Z" fill="#243838"/>
<path d="M22.9167 36.6667C25.4481 36.6667 27.4999 38.7185 27.4999 41.2498C27.4999 43.7812 25.448 45.8332 22.9166 45.8332C20.3853 45.8332 18.3332 43.7812 18.3332 41.2498C18.3332 38.7185 20.3854 36.6667 22.9167 36.6667Z" fill="#243838"/>
<path d="M41.25 36.6667C43.7814 36.6667 45.8334 38.7185 45.8334 41.2498C45.8334 43.7812 43.7815 45.8332 41.2501 45.8332C38.7187 45.8332 36.6668 43.7812 36.6668 41.2498C36.6668 38.7185 38.7187 36.6667 41.25 36.6667Z" fill="#243838"/>
</svg>
