<svg width="42" height="42" viewBox="0 0 42 42" fill="none" xmlns="http://www.w3.org/2000/svg">
<path fill-rule="evenodd" clip-rule="evenodd" d="M10.5 1.3125C10.5 0.964403 10.3617 0.630564 10.1156 0.384422C9.86944 0.138281 9.5356 0 9.1875 0C8.8394 0 8.50556 0.138281 8.25942 0.384422C8.01328 0.630564 7.875 0.964403 7.875 1.3125V2.625H5.25C3.85761 2.625 2.52226 3.17812 1.53769 4.16269C0.553124 5.14726 0 6.48261 0 7.875L0 36.75C0 38.1424 0.553124 39.4777 1.53769 40.4623C2.52226 41.4469 3.85761 42 5.25 42H36.75C38.1424 42 39.4777 41.4469 40.4623 40.4623C41.4469 39.4777 42 38.1424 42 36.75V7.875C42 6.48261 41.4469 5.14726 40.4623 4.16269C39.4777 3.17812 38.1424 2.625 36.75 2.625H34.125V1.3125C34.125 0.964403 33.9867 0.630564 33.7406 0.384422C33.4944 0.138281 33.1606 0 32.8125 0C32.4644 0 32.1306 0.138281 31.8844 0.384422C31.6383 0.630564 31.5 0.964403 31.5 1.3125V2.625H10.5V1.3125ZM2.625 36.75V10.5H39.375V36.75C39.375 37.4462 39.0984 38.1139 38.6062 38.6062C38.1139 39.0984 37.4462 39.375 36.75 39.375H5.25C4.55381 39.375 3.88613 39.0984 3.39384 38.6062C2.90156 38.1139 2.625 37.4462 2.625 36.75ZM21 19.6691C25.368 15.1778 36.2906 23.037 21 33.1406C5.70938 23.0344 16.632 15.1778 21 19.6691Z" fill="#243838"/>
</svg>
