<svg width="78" height="32" viewBox="0 0 78 32" fill="none" xmlns="http://www.w3.org/2000/svg">
<path d="M37.8489 2.92705C38.1482 2.00574 39.4517 2.00574 39.751 2.92705L42.0779 10.0884C42.2117 10.5004 42.5957 10.7793 43.0289 10.7793H50.5588C51.5275 10.7793 51.9302 12.019 51.1465 12.5884L45.0548 17.0143C44.7043 17.2689 44.5576 17.7203 44.6915 18.1323L47.0183 25.2936C47.3177 26.2149 46.2632 26.981 45.4795 26.4116L39.3877 21.9857C39.0372 21.7311 38.5627 21.7311 38.2122 21.9857L32.1204 26.4116C31.3367 26.9811 30.2822 26.2149 30.5816 25.2936L32.9084 18.1323C33.0423 17.7203 32.8956 17.2689 32.5451 17.0143L26.4534 12.5883C25.6697 12.0189 26.0724 10.7793 27.0412 10.7793H34.571C35.0042 10.7793 35.3882 10.5004 35.522 10.0884L37.8489 2.92705Z" fill="#243838"/>
<path d="M65.0488 11.7269C65.3482 10.8055 66.6516 10.8055 66.951 11.7269L68.3798 16.1242C68.5136 16.5362 68.8976 16.8152 69.3308 16.8152H73.9545C74.9232 16.8152 75.326 18.0548 74.5423 18.6242L70.8016 21.3419C70.4511 21.5966 70.3045 22.048 70.4384 22.46L71.8672 26.8574C72.1665 27.7787 71.112 28.5448 70.3283 27.9754L66.5877 25.2577C66.2372 25.003 65.7626 25.003 65.4121 25.2577L61.6715 27.9754C60.8878 28.5448 59.8333 27.7787 60.1326 26.8574L61.5614 22.46C61.6953 22.048 61.5487 21.5966 61.1982 21.3419L57.4575 18.6242C56.6738 18.0548 57.0766 16.8152 58.0453 16.8152H62.669C63.1022 16.8152 63.4862 16.5362 63.6201 16.1242L65.0488 11.7269Z" fill="#243838"/>
<path d="M10.6489 11.7269C10.9483 10.8055 12.2517 10.8055 12.5511 11.7269L13.9798 16.1242C14.1137 16.5362 14.4977 16.8152 14.9309 16.8152H19.5546C20.5233 16.8152 20.9261 18.0548 20.1424 18.6242L16.4017 21.3419C16.0512 21.5966 15.9046 22.048 16.0385 22.46L17.4673 26.8574C17.7666 27.7787 16.7121 28.5448 15.9284 27.9754L12.1878 25.2577C11.8373 25.003 11.3627 25.003 11.0122 25.2577L7.27159 27.9754C6.48788 28.5448 5.4334 27.7787 5.73275 26.8574L7.16154 22.46C7.29541 22.048 7.14876 21.5966 6.79827 21.3419L3.05764 18.6242C2.27393 18.0548 2.6767 16.8152 3.64543 16.8152H8.2691C8.70232 16.8152 9.08628 16.5362 9.22015 16.1242L10.6489 11.7269Z" fill="#243838"/>
</svg>
